<?xml version="1.0" encoding="utf-8"?>
<!-- Generator: Adobe Illustrator 25.0.0, SVG Export Plug-In . SVG Version: 6.00 Build 0)  -->
<svg version="1.1" id="Layer_1" xmlns="http://www.w3.org/2000/svg" xmlns:xlink="http://www.w3.org/1999/xlink" x="0px" y="0px"
	 viewBox="0 0 67.3 103.8" style="enable-background:new 0 0 67.3 103.8;" xml:space="preserve">
<style type="text/css">
	.st0{fill:#347036;}
	.st1{fill:none;stroke:#FFFFFF;stroke-width:6;stroke-linecap:round;stroke-miterlimit:10;}
</style>
<path class="st0" d="M0,0v103.8h5c0.5-2.2,2.4-3.9,4.8-3.9s4.3,1.7,4.8,3.9H17c0.5-2.2,2.4-3.9,4.8-3.9s4.3,1.7,4.8,3.9H29
	c0.5-2.2,2.4-3.9,4.8-3.9s4.3,1.7,4.8,3.9h2.5c0.5-2.2,2.4-3.9,4.8-3.9s4.3,1.7,4.8,3.9h2.5c0.5-2.2,2.4-3.9,4.8-3.9
	s4.3,1.7,4.8,3.9h4.7V0H0z M44.4,33c0,0.6-0.3,0.9-0.9,0.9c-1.2,0-2.4,0-3.6,0c-0.2,0-0.3,0-0.4,0.3c-0.4,2.1-1.4,3.9-3,5.2
	c-1.5,1.2-3.2,2-5,2.4c-0.5,0.1-1,0.2-1.6,0.3c0.1,0.1,0.2,0.2,0.3,0.3c3.7,4,7.1,8.2,10.6,12.4c0.4,0.5,0.3,0.9-0.3,1.3
	c-1.7,0-3.4,0-5.1,0c-0.2-0.1-0.4-0.3-0.5-0.4c-3.8-4.5-7.6-9-11.6-13.3c-0.2-0.3-0.4-0.5-0.3-0.9c0-0.9,0-1.7,0-2.6
	c0-0.7,0.3-1,1-1c1.3,0,2.7,0,4-0.1c1.5-0.1,3-0.5,4.3-1.4c0.8-0.6,1.3-1.3,1.6-2.3c0-0.1,0-0.1,0-0.2c-0.1,0-0.3,0-0.4,0
	c-3.2,0-6.3,0-9.5,0c-0.8,0-1-0.2-1-1c0-0.7,0-1.3,0-2c0-0.7,0.2-0.9,0.9-0.9c3.1,0,6.1,0,9.2,0c0.1,0,0.3,0,0.4,0
	c-0.4-0.8-0.9-1.3-1.6-1.7c-1.2-0.7-2.5-0.9-3.8-1c-1.4,0-2.7,0-4.1,0c-0.8,0-1.1-0.3-1.1-1.1c0-0.9,0-1.8,0-2.7
	c0-0.7,0.3-0.9,0.9-0.9c6.5,0,13,0,19.6,0c0.6,0,0.9,0.3,0.9,0.9c0,0.7,0,1.4,0,2.2c0,0.6-0.3,0.9-0.9,0.9c-1.7,0-3.3,0-5,0
	c-0.1,0-0.2,0-0.4,0c0.3,0.4,0.5,0.8,0.7,1.3c0.3,0.6,0.5,1.2,0.7,1.9c0.1,0.2,0.2,0.3,0.4,0.3c1.2,0,2.4,0,3.6,0
	c0.7,0,0.9,0.2,0.9,0.9C44.4,31.5,44.4,32.3,44.4,33z"/>
<line class="st1" x1="13.1" y1="66.5" x2="33.4" y2="66.5"/>
<line class="st1" x1="13.1" y1="78.4" x2="33.4" y2="78.4"/>
<line class="st1" x1="44.3" y1="78.4" x2="53.5" y2="78.4"/>
<line class="st1" x1="44.3" y1="66.5" x2="53.5" y2="66.5"/>
</svg>
