<?xml version="1.0" encoding="utf-8"?>
<!-- Generator: Adobe Illustrator 25.0.0, SVG Export Plug-In . SVG Version: 6.00 Build 0)  -->
<svg version="1.1" id="Layer_1" xmlns="http://www.w3.org/2000/svg" xmlns:xlink="http://www.w3.org/1999/xlink" x="0px" y="0px"
	 viewBox="0 0 86.5 111.5" style="enable-background:new 0 0 86.5 111.5;" xml:space="preserve">
<style type="text/css">
	.st0{fill:#326E36;}
	.st1{fill:none;stroke:#FFFFFF;stroke-width:5;stroke-linecap:round;stroke-miterlimit:10;}
</style>
<path class="st0" d="M75.7,0h-65C4.8,0,0,4.8,0,10.7v90.1c0,5.9,4.8,10.7,10.7,10.7h65c5.9,0,10.7-4.8,10.7-10.7V10.7
	C86.5,4.8,81.7,0,75.7,0z M64.3,62.5H22.2c-1.4,0-2.5-1.1-2.5-2.5s1.1-2.5,2.5-2.5h3.9c-0.3-2.1-2.3-17.8,12.9-21.3
	c0.6-0.1,1.2-0.2,1.8-0.3v-5.4c0-1.4,1.1-2.5,2.5-2.5s2.5,1.1,2.5,2.5v5.3c5.1,0.6,15.2,4,15,21.9h3.6c1.4,0,2.5,1.1,2.5,2.5
	S65.7,62.5,64.3,62.5z"/>
<line class="st1" x1="28.2" y1="81.2" x2="57.6" y2="81.2"/>
</svg>
