<?xml version="1.0" encoding="utf-8"?>
<!-- Generator: Adobe Illustrator 25.0.0, SVG Export Plug-In . SVG Version: 6.00 Build 0)  -->
<svg version="1.1" id="Layer_1" xmlns="http://www.w3.org/2000/svg" xmlns:xlink="http://www.w3.org/1999/xlink" x="0px" y="0px"
	 viewBox="0 0 166.9 176.7" style="enable-background:new 0 0 166.9 176.7;" xml:space="preserve">
<style type="text/css">
	.st0{fill:#326E36;}
	.st1{fill:none;stroke:#FFFFFF;stroke-width:6;stroke-linecap:round;stroke-miterlimit:10;}
	.st2{fill:#FFFFFF;}
	.st3{clip-path:url(#SVGID_2_);fill:#FFFFFF;}
	.st4{clip-path:url(#SVGID_4_);fill:#FFFFFF;}
</style>
<path class="st0" d="M83.5,5.9c-44.2,0-80,35.8-80,80s35.8,80,80,80c44.2,0,80-35.8,80-80S127.6,5.9,83.5,5.9z M83.5,121
	c-18.8,0-34.1-15.3-34.1-34.1c0-18.8,15.3-34.1,34.1-34.1c18.8,0,34.1,15.3,34.1,34.1C117.5,105.7,102.3,121,83.5,121z"/>
<line class="st1" x1="83.5" y1="41.7" x2="102.3" y2="41.7"/>
<line class="st1" x1="117.5" y1="56.8" x2="130.4" y2="70.6"/>
<line class="st1" x1="130.7" y1="101.5" x2="118" y2="115.3"/>
<line class="st1" x1="47.8" y1="58.5" x2="38.2" y2="68.9"/>
<line class="st1" x1="32.9" y1="101.4" x2="39.8" y2="113.8"/>
<circle class="st2" cx="65.5" cy="41.7" r="3.9"/>
<circle class="st2" cx="28.4" cy="86.4" r="3.9"/>
<circle class="st2" cx="138.3" cy="86.9" r="3.9"/>
<g>
	<defs>
		<rect id="SVGID_1_" x="18.9" y="143.4" width="131.1" height="23.5"/>
	</defs>
	<clipPath id="SVGID_2_">
		<use xlink:href="#SVGID_1_"  style="overflow:visible;"/>
	</clipPath>
	<ellipse class="st3" cx="83.5" cy="82.4" rx="80.7" ry="84"/>
</g>
<path class="st2" d="M27,140.9"/>
<path class="st2" d="M86.2,144.4c0,0,6.6-1,17.1-9.2c0,0,10.1-3.3,20.2,3.7c0,0,7.6,5.5,12.2,5.5l-7.6,7.4l-37.3,7.5h-7.2l-1.6-8.8
	L86.2,144.4z"/>
<g>
	<defs>
		<ellipse id="SVGID_3_" cx="83.8" cy="89.2" rx="77.6" ry="77.6"/>
	</defs>
	<clipPath id="SVGID_4_">
		<use xlink:href="#SVGID_3_"  style="overflow:visible;"/>
	</clipPath>
	<path class="st4" d="M30.8,144.4c0,0,6.6-1,17.1-9.2c0,0,10.1-3.3,20.2,3.7c0,0,7.6,5.5,12.2,5.5l-7.6,7.4l-37.3,7.5h-7.2l-1.6-8.8
		L30.8,144.4z"/>
	<path class="st4" d="M30.9,144.4c0,0,6.7-1,17.2-9.2c0,0,10.2-3.3,20.3,3.7c0,0,7.6,5.5,12.3,5.5l-7.6,7.4l-37.6,7.5h-7.2l-1.6-8.8
		L30.9,144.4z"/>
</g>
</svg>
