<?xml version="1.0" encoding="utf-8"?>
<!-- Generator: Adobe Illustrator 25.0.0, SVG Export Plug-In . SVG Version: 6.00 Build 0)  -->
<svg version="1.1" id="Layer_1" xmlns="http://www.w3.org/2000/svg" xmlns:xlink="http://www.w3.org/1999/xlink" x="0px" y="0px"
	 viewBox="0 0 86.7 130.1" style="enable-background:new 0 0 86.7 130.1;" xml:space="preserve">
<style type="text/css">
	.st0{fill:#326E36;}
</style>
<path class="st0" d="M86.2,37.7c-1.8-12.8-8.1-23.1-18.8-30.1c-13.7-9-28.3-10.1-43-2.9c-14.3,7-22.2,18.8-24.1,34.5
	c-1.1,9,0.9,17.6,5.3,25.5c11.6,21,23.3,42.1,34.9,63.1c0.5,0.9,1.4,1.5,2.1,2.3c0.5,0,1,0,1.5,0c0.7-0.8,1.6-1.4,2.1-2.3
	c11.7-21.1,23.3-42.1,35-63.2C85.8,56.2,87.6,47.2,86.2,37.7z M43,65.1C31.1,64.9,21.5,55,21.7,43.2c0.3-12,10.1-21.6,21.8-21.4
	c12.1,0.2,21.7,10,21.5,21.9C64.8,55.8,54.9,65.4,43,65.1z"/>
</svg>
